<?xml version="1.0" encoding="UTF-8"?>
<svg version="1.1" xmlns="http://www.w3.org/2000/svg" width="656" height="212">
<path d="M0 0 C216.48 0 432.96 0 656 0 C656 69.96 656 139.92 656 212 C439.52 212 223.04 212 0 212 C0 142.04 0 72.08 0 0 Z " fill="#FDFDFE" transform="translate(0,0)"/>
<path d="M0 0 C7.26 0 14.52 0 22 0 C22 0.66 22 1.32 22 2 C23.98 2 25.96 2 28 2 C28 2.66 28 3.32 28 4 C29.32 4 30.64 4 32 4 C32 4.66 32 5.32 32 6 C33.32 6 34.64 6 36 6 C36 6.66 36 7.32 36 8 C37.32 8 38.64 8 40 8 C40 8.66 40 9.32 40 10 C40.66 10 41.32 10 42 10 C42 10.66 42 11.32 42 12 C42.66 12 43.32 12 44 12 C44 12.66 44 13.32 44 14 C45.32 14 46.64 14 48 14 C48 14.66 48 15.32 48 16 C48.66 16 49.32 16 50 16 C50 17.32 50 18.64 50 20 C49.34 20 48.68 20 48 20 C48 20.66 48 21.32 48 22 C47.34 22 46.68 22 46 22 C46 22.66 46 23.32 46 24 C45.34 24 44.68 24 44 24 C44 24.66 44 25.32 44 26 C43.34 26 42.68 26 42 26 C42 26.66 42 27.32 42 28 C40.68 28 39.36 28 38 28 C38 27.34 38 26.68 38 26 C37.34 26 36.68 26 36 26 C36 25.34 36 24.68 36 24 C35.34 24 34.68 24 34 24 C34 23.34 34 22.68 34 22 C32.68 22 31.36 22 30 22 C30 21.34 30 20.68 30 20 C29.34 20 28.68 20 28 20 C28 19.34 28 18.68 28 18 C26.02 18 24.04 18 22 18 C22 17.34 22 16.68 22 16 C20.02 16 18.04 16 16 16 C16 15.34 16 14.68 16 14 C12.04 14 8.08 14 4 14 C4 14.66 4 15.32 4 16 C1.36 16 -1.28 16 -4 16 C-4 16.66 -4 17.32 -4 18 C-5.32 18 -6.64 18 -8 18 C-8 18.66 -8 19.32 -8 20 C-8.66 20 -9.32 20 -10 20 C-10 20.66 -10 21.32 -10 22 C-10.66 22 -11.32 22 -12 22 C-12 22.66 -12 23.32 -12 24 C-12.66 24 -13.32 24 -14 24 C-14 24.66 -14 25.32 -14 26 C-14.66 26 -15.32 26 -16 26 C-16 26.66 -16 27.32 -16 28 C-16.66 28 -17.32 28 -18 28 C-18 28.66 -18 29.32 -18 30 C-18.66 30 -19.32 30 -20 30 C-20 31.32 -20 32.64 -20 34 C-20.66 34 -21.32 34 -22 34 C-22 35.98 -22 37.96 -22 40 C-22.66 40 -23.32 40 -24 40 C-24 45.94 -24 51.88 -24 58 C-23.34 58 -22.68 58 -22 58 C-22 59.98 -22 61.96 -22 64 C-21.34 64 -20.68 64 -20 64 C-20 65.32 -20 66.64 -20 68 C-19.34 68 -18.68 68 -18 68 C-18 69.32 -18 70.64 -18 72 C-17.34 72 -16.68 72 -16 72 C-16 72.66 -16 73.32 -16 74 C-15.34 74 -14.68 74 -14 74 C-14 74.66 -14 75.32 -14 76 C-13.34 76 -12.68 76 -12 76 C-12 76.66 -12 77.32 -12 78 C-11.34 78 -10.68 78 -10 78 C-10 78.66 -10 79.32 -10 80 C-8.68 80 -7.36 80 -6 80 C-6 80.66 -6 81.32 -6 82 C-4.68 82 -3.36 82 -2 82 C-2 82.66 -2 83.32 -2 84 C6.58 84 15.16 84 24 84 C24 83.34 24 82.68 24 82 C25.32 82 26.64 82 28 82 C28 81.34 28 80.68 28 80 C28.66 80 29.32 80 30 80 C30 79.34 30 78.68 30 78 C31.32 78 32.64 78 34 78 C34 77.34 34 76.68 34 76 C34.66 76 35.32 76 36 76 C36 75.34 36 74.68 36 74 C36.66 74 37.32 74 38 74 C38 72.68 38 71.36 38 70 C38.66 70 39.32 70 40 70 C40 69.34 40 68.68 40 68 C40.66 68 41.32 68 42 68 C42 66.02 42 64.04 42 62 C42.66 62 43.32 62 44 62 C44 60.02 44 58.04 44 56 C33.44 56 22.88 56 12 56 C12 52.04 12 48.08 12 44 C27.18 44 42.36 44 58 44 C58 51.26 58 58.52 58 66 C57.34 66 56.68 66 56 66 C56 67.98 56 69.96 56 72 C55.34 72 54.68 72 54 72 C54 73.32 54 74.64 54 76 C53.34 76 52.68 76 52 76 C52 76.66 52 77.32 52 78 C51.34 78 50.68 78 50 78 C50 79.32 50 80.64 50 82 C49.34 82 48.68 82 48 82 C48 82.66 48 83.32 48 84 C47.34 84 46.68 84 46 84 C46 84.66 46 85.32 46 86 C44.68 86 43.36 86 42 86 C42 86.66 42 87.32 42 88 C41.34 88 40.68 88 40 88 C40 88.66 40 89.32 40 90 C39.34 90 38.68 90 38 90 C38 90.66 38 91.32 38 92 C36.68 92 35.36 92 34 92 C34 92.66 34 93.32 34 94 C32.02 94 30.04 94 28 94 C28 94.66 28 95.32 28 96 C26.68 96 25.36 96 24 96 C24 96.66 24 97.32 24 98 C15.42 98 6.84 98 -2 98 C-2 97.34 -2 96.68 -2 96 C-3.32 96 -4.64 96 -6 96 C-6 95.34 -6 94.68 -6 94 C-8.64 94 -11.28 94 -14 94 C-14 93.34 -14 92.68 -14 92 C-14.66 92 -15.32 92 -16 92 C-16 91.34 -16 90.68 -16 90 C-17.32 90 -18.64 90 -20 90 C-20 89.34 -20 88.68 -20 88 C-20.66 88 -21.32 88 -22 88 C-22 87.34 -22 86.68 -22 86 C-22.66 86 -23.32 86 -24 86 C-24 85.34 -24 84.68 -24 84 C-24.66 84 -25.32 84 -26 84 C-26 83.34 -26 82.68 -26 82 C-26.66 82 -27.32 82 -28 82 C-28 81.34 -28 80.68 -28 80 C-28.66 80 -29.32 80 -30 80 C-30 78.68 -30 77.36 -30 76 C-30.66 76 -31.32 76 -32 76 C-32 75.34 -32 74.68 -32 74 C-32.66 74 -33.32 74 -34 74 C-34 72.68 -34 71.36 -34 70 C-34.66 70 -35.32 70 -36 70 C-36 68.68 -36 67.36 -36 66 C-36.66 66 -37.32 66 -38 66 C-40.70776842 55.0722203 -40.70776842 44.9277797 -38 34 C-37.34 34 -36.68 34 -36 34 C-36 32.68 -36 31.36 -36 30 C-35.34 30 -34.68 30 -34 30 C-34 28.68 -34 27.36 -34 26 C-33.34 26 -32.68 26 -32 26 C-32 24.68 -32 23.36 -32 22 C-31.34 22 -30.68 22 -30 22 C-30 21.34 -30 20.68 -30 20 C-29.34 20 -28.68 20 -28 20 C-28 19.34 -28 18.68 -28 18 C-27.34 18 -26.68 18 -26 18 C-26 17.34 -26 16.68 -26 16 C-25.34 16 -24.68 16 -24 16 C-24 15.34 -24 14.68 -24 14 C-23.34 14 -22.68 14 -22 14 C-22 13.34 -22 12.68 -22 12 C-21.34 12 -20.68 12 -20 12 C-20 11.34 -20 10.68 -20 10 C-19.34 10 -18.68 10 -18 10 C-18 9.34 -18 8.68 -18 8 C-16.68 8 -15.36 8 -14 8 C-14 7.34 -14 6.68 -14 6 C-12.68 6 -11.36 6 -10 6 C-10 5.34 -10 4.68 -10 4 C-8.68 4 -7.36 4 -6 4 C-6 3.34 -6 2.68 -6 2 C-4.02 2 -2.04 2 0 2 C0 1.34 0 0.68 0 0 Z " fill="#0734EB" transform="translate(290,60)"/>
<path d="M0 0 C5.94 0 11.88 0 18 0 C18 0.66 18 1.32 18 2 C19.98 2 21.96 2 24 2 C24 2.66 24 3.32 24 4 C25.32 4 26.64 4 28 4 C28 4.66 28 5.32 28 6 C28.66 6 29.32 6 30 6 C30 6.66 30 7.32 30 8 C31.32 8 32.64 8 34 8 C34 8.66 34 9.32 34 10 C34.66 10 35.32 10 36 10 C36 10.66 36 11.32 36 12 C36.66 12 37.32 12 38 12 C38 13.32 38 14.64 38 16 C38.66 16 39.32 16 40 16 C40 16.66 40 17.32 40 18 C40.66 18 41.32 18 42 18 C42 19.32 42 20.64 42 22 C42.66 22 43.32 22 44 22 C44 29.26 44 36.52 44 44 C43.34 44 42.68 44 42 44 C42 45.98 42 47.96 42 50 C41.34 50 40.68 50 40 50 C40 51.32 40 52.64 40 54 C39.34 54 38.68 54 38 54 C38 54.66 38 55.32 38 56 C37.34 56 36.68 56 36 56 C36 56.66 36 57.32 36 58 C35.34 58 34.68 58 34 58 C34 58.66 34 59.32 34 60 C33.34 60 32.68 60 32 60 C32 60.66 32 61.32 32 62 C30.68 62 29.36 62 28 62 C28 62.66 28 63.32 28 64 C27.34 64 26.68 64 26 64 C26 64.66 26 65.32 26 66 C24.68 66 23.36 66 22 66 C22 66.66 22 67.32 22 68 C14.08 68 6.16 68 -2 68 C-2 67.34 -2 66.68 -2 66 C-3.32 66 -4.64 66 -6 66 C-6 65.34 -6 64.68 -6 64 C-6.66 64 -7.32 64 -8 64 C-8 63.34 -8 62.68 -8 62 C-9.32 62 -10.64 62 -12 62 C-12 61.34 -12 60.68 -12 60 C-12.66 60 -13.32 60 -14 60 C-14 59.34 -14 58.68 -14 58 C-14.66 58 -15.32 58 -16 58 C-16 57.34 -16 56.68 -16 56 C-16.66 56 -17.32 56 -18 56 C-18 54.68 -18 53.36 -18 52 C-18.66 52 -19.32 52 -20 52 C-20 50.68 -20 49.36 -20 48 C-20.66 48 -21.32 48 -22 48 C-22 47.34 -22 46.68 -22 46 C-22.66 46 -23.32 46 -24 46 C-24 38.74 -24 31.48 -24 24 C-23.34 24 -22.68 24 -22 24 C-22 22.68 -22 21.36 -22 20 C-21.34 20 -20.68 20 -20 20 C-20 18.68 -20 17.36 -20 16 C-19.34 16 -18.68 16 -18 16 C-18 15.34 -18 14.68 -18 14 C-17.34 14 -16.68 14 -16 14 C-16 13.34 -16 12.68 -16 12 C-15.34 12 -14.68 12 -14 12 C-14 11.34 -14 10.68 -14 10 C-13.34 10 -12.68 10 -12 10 C-12 9.34 -12 8.68 -12 8 C-11.34 8 -10.68 8 -10 8 C-10 7.34 -10 6.68 -10 6 C-9.34 6 -8.68 6 -8 6 C-8 5.34 -8 4.68 -8 4 C-6.68 4 -5.36 4 -4 4 C-4 3.34 -4 2.68 -4 2 C-2.68 2 -1.36 2 0 2 C0 1.34 0 0.68 0 0 Z " fill="#0432EB" transform="translate(380,90)"/>
<path d="M0 0 C4.62 0 9.24 0 14 0 C14 23.76 14 47.52 14 72 C13.34 72 12.68 72 12 72 C12 73.98 12 75.96 12 78 C11.34 78 10.68 78 10 78 C10 78.66 10 79.32 10 80 C9.34 80 8.68 80 8 80 C8 81.32 8 82.64 8 84 C7.34 84 6.68 84 6 84 C6 84.66 6 85.32 6 86 C5.34 86 4.68 86 4 86 C4 86.66 4 87.32 4 88 C3.34 88 2.68 88 2 88 C2 88.66 2 89.32 2 90 C1.34 90 0.68 90 0 90 C0 90.66 0 91.32 0 92 C-1.32 92 -2.64 92 -4 92 C-4 92.66 -4 93.32 -4 94 C-5.98 94 -7.96 94 -10 94 C-10 94.66 -10 95.32 -10 96 C-15.94 96 -21.88 96 -28 96 C-28 95.34 -28 94.68 -28 94 C-30.64 94 -33.28 94 -36 94 C-36 93.34 -36 92.68 -36 92 C-36.66 92 -37.32 92 -38 92 C-38 91.34 -38 90.68 -38 90 C-38.66 90 -39.32 90 -40 90 C-40 89.34 -40 88.68 -40 88 C-40.66 88 -41.32 88 -42 88 C-42 87.34 -42 86.68 -42 86 C-42.66 86 -43.32 86 -44 86 C-44 85.34 -44 84.68 -44 84 C-44.66 84 -45.32 84 -46 84 C-46 83.34 -46 82.68 -46 82 C-46.66 82 -47.32 82 -48 82 C-48 80.68 -48 79.36 -48 78 C-48.66 78 -49.32 78 -50 78 C-50 76.68 -50 75.36 -50 74 C-50.66 74 -51.32 74 -52 74 C-52 65.42 -52 56.84 -52 48 C-51.34 48 -50.68 48 -50 48 C-50 46.68 -50 45.36 -50 44 C-49.34 44 -48.68 44 -48 44 C-48 43.34 -48 42.68 -48 42 C-47.34 42 -46.68 42 -46 42 C-46 41.34 -46 40.68 -46 40 C-45.34 40 -44.68 40 -44 40 C-44 39.34 -44 38.68 -44 38 C-43.34 38 -42.68 38 -42 38 C-42 37.34 -42 36.68 -42 36 C-41.34 36 -40.68 36 -40 36 C-40 35.34 -40 34.68 -40 34 C-39.34 34 -38.68 34 -38 34 C-38 33.34 -38 32.68 -38 32 C-36.68 32 -35.36 32 -34 32 C-34 31.34 -34 30.68 -34 30 C-32.02 30 -30.04 30 -28 30 C-28 29.34 -28 28.68 -28 28 C-22.06 28 -16.12 28 -10 28 C-10 28.66 -10 29.32 -10 30 C-8.68 30 -7.36 30 -6 30 C-6 30.66 -6 31.32 -6 32 C-4.68 32 -3.36 32 -2 32 C-2 37.28 -2 42.56 -2 48 C-2.66 48 -3.32 48 -4 48 C-4 47.34 -4 46.68 -4 46 C-5.32 46 -6.64 46 -8 46 C-8 45.34 -8 44.68 -8 44 C-9.32 44 -10.64 44 -12 44 C-12 43.34 -12 42.68 -12 42 C-17.28 42 -22.56 42 -28 42 C-28 42.66 -28 43.32 -28 44 C-29.32 44 -30.64 44 -32 44 C-32 44.66 -32 45.32 -32 46 C-32.66 46 -33.32 46 -34 46 C-34 46.66 -34 47.32 -34 48 C-34.66 48 -35.32 48 -36 48 C-36 49.32 -36 50.64 -36 52 C-36.66 52 -37.32 52 -38 52 C-38 58.6 -38 65.2 -38 72 C-37.34 72 -36.68 72 -36 72 C-36 73.32 -36 74.64 -36 76 C-35.34 76 -34.68 76 -34 76 C-34 76.66 -34 77.32 -34 78 C-33.34 78 -32.68 78 -32 78 C-32 78.66 -32 79.32 -32 80 C-31.34 80 -30.68 80 -30 80 C-30 80.66 -30 81.32 -30 82 C-23.4 82 -16.8 82 -10 82 C-10 81.34 -10 80.68 -10 80 C-9.34 80 -8.68 80 -8 80 C-8 79.34 -8 78.68 -8 78 C-7.34 78 -6.68 78 -6 78 C-6 77.34 -6 76.68 -6 76 C-5.34 76 -4.68 76 -4 76 C-4 75.34 -4 74.68 -4 74 C-3.34 74 -2.68 74 -2 74 C-2 72.02 -2 70.04 -2 68 C-1.34 68 -0.68 68 0 68 C0 45.56 0 23.12 0 0 Z " fill="#0935EB" transform="translate(206,62)"/>
<path d="M0 0 C5.28 0 10.56 0 16 0 C16 0.66 16 1.32 16 2 C17.32 2 18.64 2 20 2 C20 2.66 20 3.32 20 4 C21.32 4 22.64 4 24 4 C24 4.66 24 5.32 24 6 C24.66 6 25.32 6 26 6 C26 6.66 26 7.32 26 8 C26.66 8 27.32 8 28 8 C28 8.66 28 9.32 28 10 C28.66 10 29.32 10 30 10 C30 10.66 30 11.32 30 12 C30.66 12 31.32 12 32 12 C32 13.32 32 14.64 32 16 C32.66 16 33.32 16 34 16 C34 17.32 34 18.64 34 20 C34.66 20 35.32 20 36 20 C36 35.84 36 51.68 36 68 C31.38 68 26.76 68 22 68 C22 52.82 22 37.64 22 22 C21.34 22 20.68 22 20 22 C20 21.34 20 20.68 20 20 C19.34 20 18.68 20 18 20 C18 19.34 18 18.68 18 18 C17.34 18 16.68 18 16 18 C16 17.34 16 16.68 16 16 C15.34 16 14.68 16 14 16 C14 15.34 14 14.68 14 14 C9.38 14 4.76 14 0 14 C0 14.66 0 15.32 0 16 C-0.66 16 -1.32 16 -2 16 C-2 16.66 -2 17.32 -2 18 C-2.66 18 -3.32 18 -4 18 C-4 18.66 -4 19.32 -4 20 C-4.66 20 -5.32 20 -6 20 C-6 21.32 -6 22.64 -6 24 C-6.66 24 -7.32 24 -8 24 C-8 37.86 -8 51.72 -8 66 C-11.96 66 -15.92 66 -20 66 C-20 50.16 -20 34.32 -20 18 C-19.34 18 -18.68 18 -18 18 C-18 16.68 -18 15.36 -18 14 C-17.34 14 -16.68 14 -16 14 C-16 12.68 -16 11.36 -16 10 C-15.34 10 -14.68 10 -14 10 C-14 9.34 -14 8.68 -14 8 C-13.34 8 -12.68 8 -12 8 C-12 7.34 -12 6.68 -12 6 C-10.68 6 -9.36 6 -8 6 C-8 5.34 -8 4.68 -8 4 C-7.34 4 -6.68 4 -6 4 C-6 3.34 -6 2.68 -6 2 C-4.02 2 -2.04 2 0 2 C0 1.34 0 0.68 0 0 Z " fill="#0835EB" transform="translate(110,90)"/>
<path d="M0 0 C4.62 0 9.24 0 14 0 C14 31.68 14 63.36 14 96 C9.38 96 4.76 96 0 96 C0 64.32 0 32.64 0 0 Z " fill="#0835EB" transform="translate(68,62)"/>
<path d="M0 0 C3.96 0 7.92 0 12 0 C12 21.12 12 42.24 12 64 C8.04 64 4.08 64 0 64 C0 42.88 0 21.76 0 0 Z " fill="#0331EB" transform="translate(230,92)"/>
<path d="M0 0 C0.66 0 1.32 0 2 0 C2 21.12 2 42.24 2 64 C5.96 64 9.92 64 14 64 C14 42.88 14 21.76 14 0 C14.66 0 15.32 0 16 0 C16 21.78 16 43.56 16 66 C10.72 66 5.44 66 0 66 C0 44.22 0 22.44 0 0 Z " fill="#899AF3" transform="translate(228,92)"/>
<path d="M0 0 C2.64 0 5.28 0 8 0 C8 0.66 8 1.32 8 2 C8.66 2 9.32 2 10 2 C10 2.66 10 3.32 10 4 C10.66 4 11.32 4 12 4 C12 6.64 12 9.28 12 12 C11.34 12 10.68 12 10 12 C10 12.66 10 13.32 10 14 C9.34 14 8.68 14 8 14 C8 14.66 8 15.32 8 16 C4.7 16 1.4 16 -2 16 C-2 15.34 -2 14.68 -2 14 C-2.66 14 -3.32 14 -4 14 C-4 10.7 -4 7.4 -4 4 C-3.34 4 -2.68 4 -2 4 C-2 3.34 -2 2.68 -2 2 C-1.34 2 -0.68 2 0 2 C0 1.34 0 0.68 0 0 Z " fill="#113CEC" transform="translate(232,70)"/>
<path d="M0 0 C0.66 0 1.32 0 2 0 C2 13.86 2 27.72 2 42 C5.96 42 9.92 42 14 42 C14 28.14 14 14.28 14 0 C14.66 0 15.32 0 16 0 C16 14.52 16 29.04 16 44 C10.72 44 5.44 44 0 44 C0 29.48 0 14.96 0 0 Z " fill="#8A9AF3" transform="translate(88,114)"/>
<path d="M0 0 C4.62 0 9.24 0 14 0 C14 0.66 14 1.32 14 2 C10.04 2 6.08 2 2 2 C2.01047363 3.83626953 2.02094727 5.67253906 2.03173828 7.56445312 C2.06408675 13.65525179 2.08701406 19.74603002 2.10362434 25.83689117 C2.11402813 29.52705212 2.12812451 33.21711947 2.15087891 36.90722656 C2.17272955 40.47339285 2.18459419 44.03946953 2.18975449 47.60569763 C2.19520723 49.61741087 2.21080038 51.62908844 2.22659302 53.64074707 C2.22738197 60.12044934 1.97024883 65.80973723 0 72 C-0.66 72 -1.32 72 -2 72 C-2 70.68 -2 69.36 -2 68 C-1.34 68 -0.68 68 0 68 C0 45.56 0 23.12 0 0 Z " fill="#556FF0" transform="translate(206,62)"/>
<path d="M0 0 C3.3 0 6.6 0 10 0 C10 0.66 10 1.32 10 2 C10.66 2 11.32 2 12 2 C12 4.64 12 7.28 12 10 C11.34 10 10.68 10 10 10 C10 10.66 10 11.32 10 12 C9.34 12 8.68 12 8 12 C8 12.66 8 13.32 8 14 C6.02 14 4.04 14 2 14 C2 13.34 2 12.68 2 12 C1.34 12 0.68 12 0 12 C0 11.34 0 10.68 0 10 C-0.66 10 -1.32 10 -2 10 C-2 7.36 -2 4.72 -2 2 C-1.34 2 -0.68 2 0 2 C0 1.34 0 0.68 0 0 Z " fill="#113BEC" transform="translate(482,144)"/>
<path d="M0 0 C3.3 0 6.6 0 10 0 C10 0.66 10 1.32 10 2 C10.66 2 11.32 2 12 2 C12 4.64 12 7.28 12 10 C11.34 10 10.68 10 10 10 C10 10.66 10 11.32 10 12 C9.34 12 8.68 12 8 12 C8 12.66 8 13.32 8 14 C6.02 14 4.04 14 2 14 C2 13.34 2 12.68 2 12 C1.34 12 0.68 12 0 12 C0 11.34 0 10.68 0 10 C-0.66 10 -1.32 10 -2 10 C-2 7.36 -2 4.72 -2 2 C-1.34 2 -0.68 2 0 2 C0 1.34 0 0.68 0 0 Z " fill="#2047ED" transform="translate(586,62)"/>
<path d="M0 0 C3.3 0 6.6 0 10 0 C10 0.66 10 1.32 10 2 C10.66 2 11.32 2 12 2 C12 4.64 12 7.28 12 10 C11.34 10 10.68 10 10 10 C10 10.66 10 11.32 10 12 C9.34 12 8.68 12 8 12 C8 12.66 8 13.32 8 14 C6.02 14 4.04 14 2 14 C2 13.34 2 12.68 2 12 C1.34 12 0.68 12 0 12 C0 11.34 0 10.68 0 10 C-0.66 10 -1.32 10 -2 10 C-2 7.36 -2 4.72 -2 2 C-1.34 2 -0.68 2 0 2 C0 1.34 0 0.68 0 0 Z " fill="#5671F0" transform="translate(616,32)"/>
<path d="M0 0 C2.64 0 5.28 0 8 0 C8 1.32 8 2.64 8 4 C8.66 4 9.32 4 10 4 C10 6.64 10 9.28 10 12 C9.34 12 8.68 12 8 12 C8 12.66 8 13.32 8 14 C5.36 14 2.72 14 0 14 C0 13.34 0 12.68 0 12 C-0.66 12 -1.32 12 -2 12 C-2 11.34 -2 10.68 -2 10 C-2.66 10 -3.32 10 -4 10 C-4 8.02 -4 6.04 -4 4 C-3.34 4 -2.68 4 -2 4 C-2 3.34 -2 2.68 -2 2 C-1.34 2 -0.68 2 0 2 C0 1.34 0 0.68 0 0 Z " fill="#1D45EC" transform="translate(520,128)"/>
<path d="M0 0 C2.64 0 5.28 0 8 0 C8 0.66 8 1.32 8 2 C9.32 2 10.64 2 12 2 C12 4.64 12 7.28 12 10 C11.34 10 10.68 10 10 10 C10 10.66 10 11.32 10 12 C9.34 12 8.68 12 8 12 C8 12.66 8 13.32 8 14 C6.02 14 4.04 14 2 14 C2 13.34 2 12.68 2 12 C1.34 12 0.68 12 0 12 C0 11.34 0 10.68 0 10 C-0.66 10 -1.32 10 -2 10 C-2 7.36 -2 4.72 -2 2 C-1.34 2 -0.68 2 0 2 C0 1.34 0 0.68 0 0 Z " fill="#113CEC" transform="translate(500,62)"/>
<path d="M0 0 C1.98 0 3.96 0 6 0 C6 0.66 6 1.32 6 2 C6.66 2 7.32 2 8 2 C8 2.66 8 3.32 8 4 C8.66 4 9.32 4 10 4 C10 5.98 10 7.96 10 10 C9.34 10 8.68 10 8 10 C8 10.66 8 11.32 8 12 C7.34 12 6.68 12 6 12 C6 12.66 6 13.32 6 14 C3.36 14 0.72 14 -2 14 C-2 13.34 -2 12.68 -2 12 C-2.66 12 -3.32 12 -4 12 C-4 9.36 -4 6.72 -4 4 C-3.34 4 -2.68 4 -2 4 C-2 3.34 -2 2.68 -2 2 C-1.34 2 -0.68 2 0 2 C0 1.34 0 0.68 0 0 Z " fill="#1C44EC" transform="translate(506,186)"/>
<path d="M0 0 C2.64 0 5.28 0 8 0 C8 0.66 8 1.32 8 2 C8.66 2 9.32 2 10 2 C10 2.66 10 3.32 10 4 C10.66 4 11.32 4 12 4 C12 5.98 12 7.96 12 10 C11.34 10 10.68 10 10 10 C10 10.66 10 11.32 10 12 C9.34 12 8.68 12 8 12 C8 12.66 8 13.32 8 14 C6.02 14 4.04 14 2 14 C2 13.34 2 12.68 2 12 C1.34 12 0.68 12 0 12 C0 11.34 0 10.68 0 10 C-0.66 10 -1.32 10 -2 10 C-2 7.36 -2 4.72 -2 2 C-1.34 2 -0.68 2 0 2 C0 1.34 0 0.68 0 0 Z " fill="#244BED" transform="translate(504,144)"/>
<path d="M0 0 C2.64 0 5.28 0 8 0 C8 0.66 8 1.32 8 2 C8.66 2 9.32 2 10 2 C10 4.64 10 7.28 10 10 C9.34 10 8.68 10 8 10 C8 10.66 8 11.32 8 12 C7.34 12 6.68 12 6 12 C6 12.66 6 13.32 6 14 C4.02 14 2.04 14 0 14 C0 13.34 0 12.68 0 12 C-0.66 12 -1.32 12 -2 12 C-2 11.34 -2 10.68 -2 10 C-2.66 10 -3.32 10 -4 10 C-4 8.02 -4 6.04 -4 4 C-3.34 4 -2.68 4 -2 4 C-2 3.34 -2 2.68 -2 2 C-1.34 2 -0.68 2 0 2 C0 1.34 0 0.68 0 0 Z " fill="#103BEB" transform="translate(462,144)"/>
<path d="M0 0 C1.98 0 3.96 0 6 0 C6 0.66 6 1.32 6 2 C6.66 2 7.32 2 8 2 C8 2.66 8 3.32 8 4 C8.66 4 9.32 4 10 4 C10 5.98 10 7.96 10 10 C9.34 10 8.68 10 8 10 C8 10.66 8 11.32 8 12 C7.34 12 6.68 12 6 12 C6 12.66 6 13.32 6 14 C3.36 14 0.72 14 -2 14 C-2 13.34 -2 12.68 -2 12 C-2.66 12 -3.32 12 -4 12 C-4 9.36 -4 6.72 -4 4 C-3.34 4 -2.68 4 -2 4 C-2 3.34 -2 2.68 -2 2 C-1.34 2 -0.68 2 0 2 C0 1.34 0 0.68 0 0 Z " fill="#1D45EC" transform="translate(588,104)"/>
<path d="M0 0 C16.5 0 33 0 50 0 C50 5.94 50 11.88 50 18 C49.34 18 48.68 18 48 18 C48 12.72 48 7.44 48 2 C32.82 2 17.64 2 2 2 C2 5.96 2 9.92 2 14 C1.34 14 0.68 14 0 14 C0 9.38 0 4.76 0 0 Z " fill="#8999F3" transform="translate(300,102)"/>
<path d="M0 0 C2.64 0 5.28 0 8 0 C8 0.66 8 1.32 8 2 C8.66 2 9.32 2 10 2 C10 4.64 10 7.28 10 10 C9.34 10 8.68 10 8 10 C8 10.66 8 11.32 8 12 C7.34 12 6.68 12 6 12 C6 12.66 6 13.32 6 14 C4.02 14 2.04 14 0 14 C0 13.34 0 12.68 0 12 C-0.66 12 -1.32 12 -2 12 C-2 11.34 -2 10.68 -2 10 C-2.66 10 -3.32 10 -4 10 C-4 8.02 -4 6.04 -4 4 C-3.34 4 -2.68 4 -2 4 C-2 3.34 -2 2.68 -2 2 C-1.34 2 -0.68 2 0 2 C0 1.34 0 0.68 0 0 Z " fill="#234AED" transform="translate(566,62)"/>
<path d="M0 0 C3.3 0 6.6 0 10 0 C10 0.66 10 1.32 10 2 C10.66 2 11.32 2 12 2 C12 4.64 12 7.28 12 10 C11.34 10 10.68 10 10 10 C10 10.66 10 11.32 10 12 C6.7 12 3.4 12 0 12 C0 11.34 0 10.68 0 10 C-0.66 10 -1.32 10 -2 10 C-2 7.36 -2 4.72 -2 2 C-1.34 2 -0.68 2 0 2 C0 1.34 0 0.68 0 0 Z " fill="#0E3AEB" transform="translate(586,148)"/>
<path d="M0 0 C2.64 0 5.28 0 8 0 C8 0.66 8 1.32 8 2 C8.66 2 9.32 2 10 2 C10 2.66 10 3.32 10 4 C10.66 4 11.32 4 12 4 C12 5.98 12 7.96 12 10 C11.34 10 10.68 10 10 10 C10 10.66 10 11.32 10 12 C9.34 12 8.68 12 8 12 C8 12.66 8 13.32 8 14 C6.02 14 4.04 14 2 14 C2 13.34 2 12.68 2 12 C1.34 12 0.68 12 0 12 C0 11.34 0 10.68 0 10 C-0.66 10 -1.32 10 -2 10 C-2 8.02 -2 6.04 -2 4 C-1.34 4 -0.68 4 0 4 C0 2.68 0 1.36 0 0 Z " fill="#0E39EB" transform="translate(586,126)"/>
<path d="M0 0 C3.3 0 6.6 0 10 0 C10 0.66 10 1.32 10 2 C10.66 2 11.32 2 12 2 C12 4.64 12 7.28 12 10 C11.34 10 10.68 10 10 10 C10 10.66 10 11.32 10 12 C6.7 12 3.4 12 0 12 C0 11.34 0 10.68 0 10 C-0.66 10 -1.32 10 -2 10 C-2 7.36 -2 4.72 -2 2 C-1.34 2 -0.68 2 0 2 C0 1.34 0 0.68 0 0 Z " fill="#0E39EB" transform="translate(534,114)"/>
<path d="M0 0 C2.64 0 5.28 0 8 0 C8 0.66 8 1.32 8 2 C8.66 2 9.32 2 10 2 C10 5.3 10 8.6 10 12 C9.34 12 8.68 12 8 12 C8 12.66 8 13.32 8 14 C5.36 14 2.72 14 0 14 C0 13.34 0 12.68 0 12 C-0.66 12 -1.32 12 -2 12 C-2 8.7 -2 5.4 -2 2 C-1.34 2 -0.68 2 0 2 C0 1.34 0 0.68 0 0 Z " fill="#103BEC" transform="translate(550,98)"/>
<path d="M0 0 C3.3 0 6.6 0 10 0 C10 0.66 10 1.32 10 2 C10.66 2 11.32 2 12 2 C12 4.64 12 7.28 12 10 C11.34 10 10.68 10 10 10 C10 10.66 10 11.32 10 12 C6.7 12 3.4 12 0 12 C0 11.34 0 10.68 0 10 C-0.66 10 -1.32 10 -2 10 C-2 7.36 -2 4.72 -2 2 C-1.34 2 -0.68 2 0 2 C0 1.34 0 0.68 0 0 Z " fill="#0E39EB" transform="translate(586,84)"/>
<path d="M0 0 C3.3 0 6.6 0 10 0 C10 0.66 10 1.32 10 2 C10.66 2 11.32 2 12 2 C12 4.64 12 7.28 12 10 C11.34 10 10.68 10 10 10 C10 10.66 10 11.32 10 12 C6.7 12 3.4 12 0 12 C0 11.34 0 10.68 0 10 C-0.66 10 -1.32 10 -2 10 C-2 7.36 -2 4.72 -2 2 C-1.34 2 -0.68 2 0 2 C0 1.34 0 0.68 0 0 Z " fill="#0B37EB" transform="translate(564,84)"/>
<path d="M0 0 C2.64 0 5.28 0 8 0 C8 0.66 8 1.32 8 2 C8.66 2 9.32 2 10 2 C10 5.3 10 8.6 10 12 C9.34 12 8.68 12 8 12 C8 12.66 8 13.32 8 14 C5.36 14 2.72 14 0 14 C0 13.34 0 12.68 0 12 C-0.66 12 -1.32 12 -2 12 C-2 8.7 -2 5.4 -2 2 C-1.34 2 -0.68 2 0 2 C0 1.34 0 0.68 0 0 Z " fill="#2249ED" transform="translate(544,62)"/>
<path d="M0 0 C2.64 0 5.28 0 8 0 C8 0.66 8 1.32 8 2 C8.66 2 9.32 2 10 2 C10 5.3 10 8.6 10 12 C9.34 12 8.68 12 8 12 C8 12.66 8 13.32 8 14 C6.02 14 4.04 14 2 14 C2 13.34 2 12.68 2 12 C0.68 12 -0.64 12 -2 12 C-2 8.7 -2 5.4 -2 2 C-1.34 2 -0.68 2 0 2 C0 1.34 0 0.68 0 0 Z " fill="#1E46EC" transform="translate(522,62)"/>
<path d="M0 0 C1.32 0 2.64 0 4 0 C4 0.66 4 1.32 4 2 C5.32 2 6.64 2 8 2 C8 5.3 8 8.6 8 12 C7.34 12 6.68 12 6 12 C6 12.66 6 13.32 6 14 C3.36 14 0.72 14 -2 14 C-2 13.34 -2 12.68 -2 12 C-2.66 12 -3.32 12 -4 12 C-4 9.36 -4 6.72 -4 4 C-3.34 4 -2.68 4 -2 4 C-2 3.34 -2 2.68 -2 2 C-1.34 2 -0.68 2 0 2 C0 1.34 0 0.68 0 0 Z " fill="#0C38EB" transform="translate(506,164)"/>
<path d="M0 0 C3.96 0 7.92 0 12 0 C12 3.3 12 6.6 12 10 C11.34 10 10.68 10 10 10 C10 10.66 10 11.32 10 12 C7.36 12 4.72 12 2 12 C2 11.34 2 10.68 2 10 C1.34 10 0.68 10 0 10 C0 6.7 0 3.4 0 0 Z " fill="#1640EC" transform="translate(600,48)"/>
<path d="M0 0 C15.18 0 30.36 0 46 0 C46 7.26 46 14.52 46 22 C45.34 22 44.68 22 44 22 C44 23.98 44 25.96 44 28 C43.34 28 42.68 28 42 28 C42.13277344 27.47535156 42.26554687 26.95070312 42.40234375 26.41015625 C44.38234443 17.72416785 44.45283609 10.30178647 45 1 C30.48 1 15.96 1 1 1 C1 4.3 1 7.6 1 11 C11.23 11 21.46 11 32 11 C32 11.33 32 11.66 32 12 C21.44 12 10.88 12 0 12 C0 8.04 0 4.08 0 0 Z " fill="#123EEC" transform="translate(302,104)"/>
<path d="M0 0 C7.26 0 14.52 0 22 0 C22 0.66 22 1.32 22 2 C23.98 2 25.96 2 28 2 C28 2.66 28 3.32 28 4 C29.32 4 30.64 4 32 4 C32 4.66 32 5.32 32 6 C31.13036621 5.78670044 31.13036621 5.78670044 30.24316406 5.5690918 C23.34558725 4.01734092 16.80191728 3.72896731 9.75 3.8125 C8.17605469 3.8134668 8.17605469 3.8134668 6.5703125 3.81445312 C1.61172275 3.84269826 -3.12972679 3.95037215 -8 5 C-8 5.66 -8 6.32 -8 7 C-9.98 7.33 -11.96 7.66 -14 8 C-14 7.34 -14 6.68 -14 6 C-12.68 6 -11.36 6 -10 6 C-10 5.34 -10 4.68 -10 4 C-8.68 4 -7.36 4 -6 4 C-6 3.34 -6 2.68 -6 2 C-4.02 2 -2.04 2 0 2 C0 1.34 0 0.68 0 0 Z " fill="#637CF1" transform="translate(290,60)"/>
<path d="M0 0 C0.66 0 1.32 0 2 0 C1.99476318 0.77714355 1.98952637 1.55428711 1.98413086 2.35498047 C1.96339844 5.86164549 1.95035179 9.36829763 1.9375 12.875 C1.92912109 14.09832031 1.92074219 15.32164063 1.91210938 16.58203125 C1.90888672 17.74863281 1.90566406 18.91523437 1.90234375 20.1171875 C1.89710693 21.19597168 1.89187012 22.27475586 1.88647461 23.38623047 C1.82116894 25.98232186 1.82116894 25.98232186 3 28 C3.039992 29.99960012 3.04346799 32.00047242 3 34 C3.66 34 4.32 34 5 34 C5.33 35.98 5.66 37.96 6 40 C5.34 40 4.68 40 4 40 C4 38.68 4 37.36 4 36 C3.34 36 2.68 36 2 36 C2 34.68 2 33.36 2 32 C1.34 32 0.68 32 0 32 C-2.70776842 21.0722203 -2.70776842 10.9277797 0 0 Z " fill="#5873F0" transform="translate(252,94)"/>
<path d="M0 0 C0.33 0 0.66 0 1 0 C1 23.1 1 46.2 1 70 C0.34 70 -0.32 70 -1 70 C-1 71.98 -1 73.96 -1 76 C-1.66 76 -2.32 76 -3 76 C-2.86042877 75.45695221 -2.72085754 74.91390442 -2.57705688 74.35440063 C-0.7568684 66.4583845 -0.65166419 58.64326861 -0.5859375 50.5859375 C-0.56718887 49.12048294 -0.54761282 47.65503876 -0.5272522 46.18960571 C-0.47631464 42.36588713 -0.43648583 38.54213369 -0.39910889 34.71826172 C-0.35882606 30.80297498 -0.30784557 26.88782838 -0.2578125 22.97265625 C-0.16150879 15.31520094 -0.07696109 7.65767677 0 0 Z " fill="#1B45ED" transform="translate(219,64)"/>
<path d="M0 0 C5.28 0 10.56 0 16 0 C16 0.66 16 1.32 16 2 C15.20335937 1.95359375 14.40671875 1.9071875 13.5859375 1.859375 C5.05661681 1.54055781 5.05661681 1.54055781 -2 6 C-3.71147573 7.96556036 -5.34929528 9.98247201 -7 12 C-7.66 12 -8.32 12 -9 12 C-8.67 17.94 -8.34 23.88 -8 30 C-8.66 30 -9.32 30 -10 30 C-10 23.4 -10 16.8 -10 10 C-9.34 10 -8.68 10 -8 10 C-8 8.68 -8 7.36 -8 6 C-7.34 6 -6.68 6 -6 6 C-6 5.34 -6 4.68 -6 4 C-5.34 4 -4.68 4 -4 4 C-4 3.34 -4 2.68 -4 2 C-2.68 2 -1.36 2 0 2 C0 1.34 0 0.68 0 0 Z " fill="#D9DEFB" transform="translate(178,104)"/>
<path d="M0 0 C0.33 0 0.66 0 1 0 C1.04649456 7.94561533 1.08195571 15.8911731 1.10362434 23.83689117 C1.11402813 27.52705212 1.12812451 31.21711947 1.15087891 34.90722656 C1.17272955 38.47339285 1.18459419 42.03946953 1.18975449 45.60569763 C1.19520723 47.61741087 1.21080038 49.62908844 1.22659302 51.64074707 C1.22738197 58.12044934 0.97024883 63.80973723 -1 70 C-1.66 70 -2.32 70 -3 70 C-3 68.68 -3 67.36 -3 66 C-2.34 66 -1.68 66 -1 66 C-0.67 44.22 -0.34 22.44 0 0 Z " fill="#3958EE" transform="translate(207,64)"/>
<path d="M0 0 C5.94 0 11.88 0 18 0 C18 0.66 18 1.32 18 2 C19.32 2 20.64 2 22 2 C22 2.66 22 3.32 22 4 C20.91900024 3.98428955 20.91900024 3.98428955 19.81616211 3.96826172 C16.52331079 3.92646285 13.2305155 3.90059812 9.9375 3.875 C8.80376953 3.85824219 7.67003906 3.84148437 6.50195312 3.82421875 C0.59960616 3.78980273 -4.44067027 3.95055189 -10 6 C-10 5.34 -10 4.68 -10 4 C-8.68 4 -7.36 4 -6 4 C-6 3.34 -6 2.68 -6 2 C-4.02 2 -2.04 2 0 2 C0 1.34 0 0.68 0 0 Z " fill="#4664EF" transform="translate(178,90)"/>
<path d="M0 0 C10.56 0 21.12 0 32 0 C32 1.98 32 3.96 32 6 C31.34 6 30.68 6 30 6 C30 4.68 30 3.36 30 2 C20.1 2 10.2 2 0 2 C0 1.34 0 0.68 0 0 Z " fill="#ABB8F6" transform="translate(302,116)"/>
<path d="M0 0 C3.3 0 6.6 0 10 0 C10 0.66 10 1.32 10 2 C10.66 2 11.32 2 12 2 C12 4.64 12 7.28 12 10 C11.34 10 10.68 10 10 10 C10 10.66 10 11.32 10 12 C9.34 12 8.68 12 8 12 C8 12.66 8 13.32 8 14 C6.02 14 4.04 14 2 14 C2 13.34 2 12.68 2 12 C1.34 12 0.68 12 0 12 C0 11.34 0 10.68 0 10 C2.97 10.33 5.94 10.66 9 11 C9 8.03 9 5.06 9 2 C6.03 2 3.06 2 0 2 C0 1.34 0 0.68 0 0 Z " fill="#506CF0" transform="translate(482,144)"/>
<path d="M0 0 C1.32 0 2.64 0 4 0 C4 0.66 4 1.32 4 2 C4.66 2 5.32 2 6 2 C6.33 4.31 6.66 6.62 7 9 C4.66705225 9.04241723 2.33297433 9.04092937 0 9 C-1 8 -1 8 -1.125 4.5 C-1 1 -1 1 0 0 Z " fill="#0332EB" transform="translate(618,34)"/>
<path d="M0 0 C0.33 0.66 0.66 1.32 1 2 C1.66 2 2.32 2 3 2 C3 3.98 3 5.96 3 8 C2.34 8 1.68 8 1 8 C1 8.66 1 9.32 1 10 C0.34 10 -0.32 10 -1 10 C-1 10.66 -1 11.32 -1 12 C-2.98 12 -4.96 12 -7 12 C-7 11.34 -7 10.68 -7 10 C-7.66 10 -8.32 10 -9 10 C-9 9.34 -9 8.68 -9 8 C-9.66 8 -10.32 8 -11 8 C-11 6.02 -11 4.04 -11 2 C-10.34 2 -9.68 2 -9 2 C-9.33 3.32 -9.66 4.64 -10 6 C-9.34 6 -8.68 6 -8 6 C-8 6.99 -8 7.98 -8 9 C-5.36 9 -2.72 9 0 9 C0 6.03 0 3.06 0 0 Z " fill="#3E5EEE" transform="translate(595,128)"/>
<path d="M0 0 C3.96 0 7.92 0 12 0 C12 0.66 12 1.32 12 2 C13.98 2 15.96 2 18 2 C18 2.66 18 3.32 18 4 C9.42 4 0.84 4 -8 4 C-8 3.34 -8 2.68 -8 2 C-5.36 2 -2.72 2 0 2 C0 1.34 0 0.68 0 0 Z " fill="#BEC6F8" transform="translate(294,74)"/>
<path d="M0 0 C0.66 0 1.32 0 2 0 C1.51061681 4.27461239 -0.95742826 6.32551066 -3.9375 9.25 C-4.83339844 10.14203125 -5.72929687 11.0340625 -6.65234375 11.953125 C-9 14 -9 14 -11 14 C-11 15.32 -11 16.64 -11 18 C-11.99 18 -12.98 18 -14 18 C-14 17.34 -14 16.68 -14 16 C-13.34 16 -12.68 16 -12 16 C-12 14.68 -12 13.36 -12 12 C-11.34 12 -10.68 12 -10 12 C-10 11.34 -10 10.68 -10 10 C-9.34 10 -8.68 10 -8 10 C-8 9.34 -8 8.68 -8 8 C-7.34 8 -6.68 8 -6 8 C-6 7.34 -6 6.68 -6 6 C-5.34 6 -4.68 6 -4 6 C-4 5.34 -4 4.68 -4 4 C-3.34 4 -2.68 4 -2 4 C-2 3.34 -2 2.68 -2 2 C-1.34 2 -0.68 2 0 2 C0 1.34 0 0.68 0 0 Z " fill="#2F53EE" transform="translate(270,70)"/>
<path d="M0 0 C3.3 0 6.6 0 10 0 C10 0.66 10 1.32 10 2 C10.66 2 11.32 2 12 2 C12 4.64 12 7.28 12 10 C11.34 10 10.68 10 10 10 C10 10.66 10 11.32 10 12 C6.7 12 3.4 12 0 12 C0 11.34 0 10.68 0 10 C2.64 10 5.28 10 8 10 C8.33 7.36 8.66 4.72 9 2 C6.03 2 3.06 2 0 2 C0 1.34 0 0.68 0 0 Z " fill="#4A68EF" transform="translate(586,148)"/>
<path d="M0 0 C3.3 0 6.6 0 10 0 C10 0.66 10 1.32 10 2 C10.66 2 11.32 2 12 2 C12 4.64 12 7.28 12 10 C11.34 10 10.68 10 10 10 C10 10.66 10 11.32 10 12 C6.7 12 3.4 12 0 12 C0 11.34 0 10.68 0 10 C2.64 10 5.28 10 8 10 C8.33 7.36 8.66 4.72 9 2 C6.03 2 3.06 2 0 2 C0 1.34 0 0.68 0 0 Z " fill="#4665EF" transform="translate(534,114)"/>
<path d="M0 0 C2.64 0 5.28 0 8 0 C8 0.66 8 1.32 8 2 C8.66 2 9.32 2 10 2 C10 5.3 10 8.6 10 12 C9.34 12 8.68 12 8 12 C8.33 9.36 8.66 6.72 9 4 C6.03 4 3.06 4 0 4 C0 6.64 0 9.28 0 12 C-0.66 12 -1.32 12 -2 12 C-2 8.7 -2 5.4 -2 2 C-1.34 2 -0.68 2 0 2 C0 1.34 0 0.68 0 0 Z " fill="#4563EF" transform="translate(550,98)"/>
<path d="M0 0 C3.3 0 6.6 0 10 0 C10 0.66 10 1.32 10 2 C7.36 2 4.72 2 2 2 C2 4.97 2 7.94 2 11 C4.64 10.67 7.28 10.34 10 10 C10 10.66 10 11.32 10 12 C6.7 12 3.4 12 0 12 C0 11.34 0 10.68 0 10 C-0.66 10 -1.32 10 -2 10 C-2 7.36 -2 4.72 -2 2 C-1.34 2 -0.68 2 0 2 C0 1.34 0 0.68 0 0 Z " fill="#4A67EF" transform="translate(564,84)"/>
<path d="M0 0 C0.58265625 0.144375 1.1653125 0.28875 1.765625 0.4375 C12.10660698 2.77885441 21.72369891 2.54634009 32 0 C32 0.66 32 1.32 32 2 C30.68 2 29.36 2 28 2 C28 2.66 28 3.32 28 4 C20.08 4 12.16 4 4 4 C4 3.34 4 2.68 4 2 C2.68 2 1.36 2 0 2 C0 1.34 0 0.68 0 0 Z " fill="#4E6CF0" transform="translate(374,154)"/>
<path d="M0 0 C3.3 0 6.6 0 10 0 C10 0.66 10 1.32 10 2 C10.66 2 11.32 2 12 2 C12 4.64 12 7.28 12 10 C11.34 10 10.68 10 10 10 C10 10.66 10 11.32 10 12 C6.7 12 3.4 12 0 12 C0 11.34 0 10.68 0 10 C2.64 10 5.28 10 8 10 C8 7.36 8 4.72 8 2 C5.36 2 2.72 2 0 2 C0 1.34 0 0.68 0 0 Z " fill="#4765EF" transform="translate(586,84)"/>
<path d="M0 0 C5.28 0 10.56 0 16 0 C16 0.66 16 1.32 16 2 C17.32 2 18.64 2 20 2 C20 2.66 20 3.32 20 4 C17.60385425 3.85834107 15.20817103 3.71181159 12.8125 3.5625 C12.13896484 3.52318359 11.46542969 3.48386719 10.77148438 3.44335938 C7.10300898 3.21072435 3.58305794 2.82792989 0 2 C0 1.34 0 0.68 0 0 Z " fill="#4361EE" transform="translate(110,90)"/>
<path d="M0 0 C0.66 0.33 1.32 0.66 2 1 C2 3.31 2 5.62 2 8 C4.64 8.33 7.28 8.66 10 9 C9.01 9.495 9.01 9.495 8 10 C8 10.66 8 11.32 8 12 C6.02 12 4.04 12 2 12 C2 11.34 2 10.68 2 10 C1.34 10 0.68 10 0 10 C0 9.34 0 8.68 0 8 C-0.66 8 -1.32 8 -2 8 C-2 6.02 -2 4.04 -2 2 C-1.34 2 -0.68 2 0 2 C0 1.34 0 0.68 0 0 Z " fill="#5470F0" transform="translate(460,146)"/>
<path d="M0 0 C3.3 0 6.6 0 10 0 C10 0.66 10 1.32 10 2 C10.66 2 11.32 2 12 2 C12 3.98 12 5.96 12 8 C11.34 8 10.68 8 10 8 C10 7.34 10 6.68 10 6 C9.34 6 8.68 6 8 6 C8 5.34 8 4.68 8 4 C7.34 4 6.68 4 6 4 C6 3.34 6 2.68 6 2 C4.02 2 2.04 2 0 2 C0 1.34 0 0.68 0 0 Z " fill="#A0ADF5" transform="translate(616,32)"/>
<path d="M0 0 C0.66 0 1.32 0 2 0 C0.56869725 3.16168368 -1.17514138 5.62274483 -3.4375 8.25 C-4.03433594 8.95640625 -4.63117188 9.6628125 -5.24609375 10.390625 C-7 12 -7 12 -10 12 C-10 11.34 -10 10.68 -10 10 C-9.34 10 -8.68 10 -8 10 C-8 8.68 -8 7.36 -8 6 C-7.34 6 -6.68 6 -6 6 C-6 5.34 -6 4.68 -6 4 C-5.34 4 -4.68 4 -4 4 C-4 3.34 -4 2.68 -4 2 C-2.68 2 -1.36 2 0 2 C0 1.34 0 0.68 0 0 Z " fill="#3155EE" transform="translate(102,94)"/>
<path d="M0 0 C5.94 0 11.88 0 18 0 C18 0.66 18 1.32 18 2 C16.58847656 1.98259766 16.58847656 1.98259766 15.1484375 1.96484375 C13.28058594 1.95130859 13.28058594 1.95130859 11.375 1.9375 C10.14523437 1.92589844 8.91546875 1.91429688 7.6484375 1.90234375 C4.32276209 1.99136076 1.25952412 2.36313913 -2 3 C-2 3.66 -2 4.32 -2 5 C-3.98 5.33 -5.96 5.66 -8 6 C-8 5.34 -8 4.68 -8 4 C-6.68 4 -5.36 4 -4 4 C-4 3.34 -4 2.68 -4 2 C-2.68 2 -1.36 2 0 2 C0 1.34 0 0.68 0 0 Z " fill="#5E77F0" transform="translate(380,90)"/>
<path d="M0 0 C0.66 0 1.32 0 2 0 C1.67 1.98 1.34 3.96 1 6 C1.66 6 2.32 6 3 6 C3.33 6.66 3.66 7.32 4 8 C6.64 8 9.28 8 12 8 C12 8.66 12 9.32 12 10 C11.34 10 10.68 10 10 10 C10 10.66 10 11.32 10 12 C8.02 12 6.04 12 4 12 C4 11.34 4 10.68 4 10 C3.34 10 2.68 10 2 10 C2 9.34 2 8.68 2 8 C1.34 8 0.68 8 0 8 C0 5.36 0 2.72 0 0 Z " fill="#4C69EF" transform="translate(584,64)"/>
<path d="M0 0 C2.64 0 5.28 0 8 0 C8 0.66 8 1.32 8 2 C7.21625 2.12375 6.4325 2.2475 5.625 2.375 C2.85942178 2.79117993 2.85942178 2.79117993 1 5 C0.35232207 7.57061311 0.35232207 7.57061311 0 10 C-0.66 10 -1.32 10 -2 10 C-2 7.36 -2 4.72 -2 2 C-1.34 2 -0.68 2 0 2 C0 1.34 0 0.68 0 0 Z " fill="#3E5EEE" transform="translate(500,62)"/>
<path d="M0 0 C0.66 0 1.32 0 2 0 C2.2361959 6.40353322 1.823321 11.84629161 0 18 C-0.66 18 -1.32 18 -2 18 C-2 16.68 -2 15.36 -2 14 C-1.34 14 -0.68 14 0 14 C0 9.38 0 4.76 0 0 Z " fill="#CAD2FA" transform="translate(424,120)"/>
<path d="M0 0 C0.66 0 1.32 0 2 0 C1.41978222 3.2548802 0.47352859 4.93652408 -1.875 7.25 C-2.38804687 7.77078125 -2.90109375 8.2915625 -3.4296875 8.828125 C-5 10 -5 10 -8 10 C-8 9.34 -8 8.68 -8 8 C-7.34 8 -6.68 8 -6 8 C-6 7.34 -6 6.68 -6 6 C-5.34 6 -4.68 6 -4 6 C-4 5.34 -4 4.68 -4 4 C-3.34 4 -2.68 4 -2 4 C-2 3.34 -2 2.68 -2 2 C-1.34 2 -0.68 2 0 2 C0 1.34 0 0.68 0 0 Z " fill="#D7DCFB" transform="translate(280,80)"/>
<path d="M0 0 C2.64 0 5.28 0 8 0 C8 0.66 8 1.32 8 2 C8.66 2 9.32 2 10 2 C10 2.66 10 3.32 10 4 C6.04 4 2.08 4 -2 4 C-2 3.34 -2 2.68 -2 2 C-1.34 2 -0.68 2 0 2 C0 1.34 0 0.68 0 0 Z " fill="#405FEE" transform="translate(232,70)"/>
<path d="M0 0 C5.28 0 10.56 0 16 0 C16 0.66 16 1.32 16 2 C15.2265625 1.97679688 14.453125 1.95359375 13.65625 1.9296875 C7.36674562 1.82071094 2.01659801 2.14873907 -4 4 C-4 3.34 -4 2.68 -4 2 C-2.68 2 -1.36 2 0 2 C0 1.34 0 0.68 0 0 Z " fill="#C2CAF9" transform="translate(178,104)"/>
<path d="M0 0 C1.32 0 2.64 0 4 0 C4 0.66 4 1.32 4 2 C9.94 2 15.88 2 22 2 C22 2.33 22 2.66 22 3 C18.70835171 3.02895225 15.41673601 3.0467823 12.125 3.0625 C11.18785156 3.07087891 10.25070313 3.07925781 9.28515625 3.08789062 C7.94130859 3.09272461 7.94130859 3.09272461 6.5703125 3.09765625 C5.32918701 3.10551147 5.32918701 3.10551147 4.06298828 3.11352539 C2 3 2 3 0 2 C0 1.34 0 0.68 0 0 Z " fill="#CAD2FA" transform="translate(174,156)"/>
<path d="M0 0 C0.33 0 0.66 0 1 0 C1 5.94 1 11.88 1 18 C1.66 18 2.32 18 3 18 C3 19.32 3 20.64 3 22 C2.34 22 1.68 22 1 22 C-0.20029908 19.59940183 -0.11459743 18.10639351 -0.09765625 15.4296875 C-0.09443359 14.53378906 -0.09121094 13.63789062 -0.08789062 12.71484375 C-0.07951172 11.77769531 -0.07113281 10.84054688 -0.0625 9.875 C-0.05798828 8.93011719 -0.05347656 7.98523438 -0.04882812 7.01171875 C-0.03702357 4.67441613 -0.02055759 2.33723939 0 0 Z " fill="#274DED" transform="translate(265,100)"/>
<path d="M0 0 C0.99 0 1.98 0 3 0 C3 2.64 3 5.28 3 8 C2.34 8 1.68 8 1 8 C1 8.66 1 9.32 1 10 C0.34 10 -0.32 10 -1 10 C-0.67 6.7 -0.34 3.4 0 0 Z " fill="#536EF0" transform="translate(509,64)"/>
<path d="M0 0 C0.99 0 1.98 0 3 0 C3 1.98 3 3.96 3 6 C3.66 6 4.32 6 5 6 C5.33 7.98 5.66 9.96 6 12 C5.34 12 4.68 12 4 12 C4 10.68 4 9.36 4 8 C3.34 8 2.68 8 2 8 C2 6.68 2 5.36 2 4 C1.34 4 0.68 4 0 4 C0 2.68 0 1.36 0 0 Z " fill="#4D6AEF" transform="translate(252,122)"/>
<path d="M0 0 C1.98 0 3.96 0 6 0 C2.93882432 2.62386487 2.26826873 3 -2 3 C-2 3.66 -2 4.32 -2 5 C-3.98 5.33 -5.96 5.66 -8 6 C-8 5.34 -8 4.68 -8 4 C-6.68 4 -5.36 4 -4 4 C-4 3.34 -4 2.68 -4 2 C-2.68 2 -1.36 2 0 2 C0 1.34 0 0.68 0 0 Z " fill="#4D6AEF" transform="translate(284,62)"/>
<path d="M0 0 C0.66 0 1.32 0 2 0 C2 0.66 2 1.32 2 2 C2.66 2 3.32 2 4 2 C4 3.98 4 5.96 4 8 C3.34 8 2.68 8 2 8 C2 8.66 2 9.32 2 10 C1.34 9.67 0.68 9.34 0 9 C0 6.03 0 3.06 0 0 Z " fill="#546FF0" transform="translate(512,188)"/>
<path d="M0 0 C0.66 0 1.32 0 2 0 C2 3.3 2 6.6 2 10 C1.34 10 0.68 10 0 10 C0 9.34 0 8.68 0 8 C-0.66 8 -1.32 8 -2 8 C-2 6.02 -2 4.04 -2 2 C-1.34 2 -0.68 2 0 2 C0 1.34 0 0.68 0 0 Z " fill="#5E77F1" transform="translate(518,130)"/>
<path d="M0 0 C1.98 0 3.96 0 6 0 C6 0.66 6 1.32 6 2 C6.66 2 7.32 2 8 2 C8 2.66 8 3.32 8 4 C4.7 4 1.4 4 -2 4 C-2 3.34 -2 2.68 -2 2 C-1.34 2 -0.68 2 0 2 C0 1.34 0 0.68 0 0 Z " fill="#4967EF" transform="translate(588,104)"/>
<path d="M0 0 C0.66 0 1.32 0 2 0 C1.25 7.75 1.25 7.75 -1 10 C-1.99 10 -2.98 10 -4 10 C-4 9.34 -4 8.68 -4 8 C-3.34 8 -2.68 8 -2 8 C-2 7.34 -2 6.68 -2 6 C-1.34 6 -0.68 6 0 6 C0 4.02 0 2.04 0 0 Z " fill="#4463EF" transform="translate(332,122)"/>
<path d="M0 0 C1.32 0 2.64 0 4 0 C4 0.66 4 1.32 4 2 C5.32 2 6.64 2 8 2 C8 2.66 8 3.32 8 4 C4.7 4 1.4 4 -2 4 C-2 3.34 -2 2.68 -2 2 C-1.34 2 -0.68 2 0 2 C0 1.34 0 0.68 0 0 Z " fill="#5B75F1" transform="translate(506,164)"/>
<path d="M0 0 C0 0.66 0 1.32 0 2 C-1.32 2 -2.64 2 -4 2 C-4 2.66 -4 3.32 -4 4 C-5.98 4 -7.96 4 -10 4 C-10 3.34 -10 2.68 -10 2 C-8.7090864 1.66376204 -7.41723903 1.33110751 -6.125 1 C-5.40570313 0.814375 -4.68640625 0.62875 -3.9453125 0.4375 C-2 0 -2 0 0 0 Z " fill="#5D77F0" transform="translate(406,154)"/>
<path d="M0 0 C2.64 0 5.28 0 8 0 C8 1.32 8 2.64 8 4 C7.34 4 6.68 4 6 4 C6 3.34 6 2.68 6 2 C4.02 2 2.04 2 0 2 C0 1.34 0 0.68 0 0 Z " fill="#91A1F5" transform="translate(616,32)"/>
<path d="M0 0 C0.66 0 1.32 0 2 0 C2 0.66 2 1.32 2 2 C2.66 2 3.32 2 4 2 C4 3.32 4 4.64 4 6 C3.34 6 2.68 6 2 6 C2 6.66 2 7.32 2 8 C1.34 7.67 0.68 7.34 0 7 C0 4.69 0 2.38 0 0 Z " fill="#526DF0" transform="translate(336,74)"/>
<path d="M0 0 C1.32 0 2.64 0 4 0 C4 0.66 4 1.32 4 2 C5.32 2 6.64 2 8 2 C8 2.66 8 3.32 8 4 C2.25 3.125 2.25 3.125 0 2 C0 1.34 0 0.68 0 0 Z " fill="#9DABF6" transform="translate(280,154)"/>
<path d="M0 0 C0.66 0 1.32 0 2 0 C2 1.32 2 2.64 2 4 C1.34 4 0.68 4 0 4 C0 5.98 0 7.96 0 10 C-0.66 10 -1.32 10 -2 10 C-1.34 6.7 -0.68 3.4 0 0 Z " fill="#4C68EF" transform="translate(218,130)"/>
<path d="M0 0 C0.33 0 0.66 0 1 0 C1.36923077 7.38461538 1.36923077 7.38461538 -0.5 10.5 C-0.995 10.995 -1.49 11.49 -2 12 C-2 10.02 -2 8.04 -2 6 C-1.34 6 -0.68 6 0 6 C0 4.02 0 2.04 0 0 Z " fill="#D1D8FB" transform="translate(348,120)"/>
<path d="M0 0 C0.66 0 1.32 0 2 0 C2 1.32 2 2.64 2 4 C1.34 4 0.68 4 0 4 C0 5.98 0 7.96 0 10 C-0.66 10 -1.32 10 -2 10 C-1.34 6.7 -0.68 3.4 0 0 Z " fill="#4160EE" transform="translate(346,122)"/>
<path d="M0 0 C0.66 0 1.32 0 2 0 C1.125 5.75 1.125 5.75 0 8 C-0.66 8 -1.32 8 -2 8 C-2 6.68 -2 5.36 -2 4 C-1.34 4 -0.68 4 0 4 C0 2.68 0 1.36 0 0 Z " fill="#546FF0" transform="translate(156,106)"/>
<path d="M0 0 C1.32 0 2.64 0 4 0 C4 0.66 4 1.32 4 2 C5.32 2 6.64 2 8 2 C8 2.66 8 3.32 8 4 C5.36 3.67 2.72 3.34 0 3 C0 2.01 0 1.02 0 0 Z " fill="#4764EF" transform="translate(314,62)"/>
<path d="M0 0 C0 0.66 0 1.32 0 2 C-1.32 2 -2.64 2 -4 2 C-4 2.66 -4 3.32 -4 4 C-5.32 4 -6.64 4 -8 4 C-7.67 3.01 -7.34 2.02 -7 1 C-2.25 0 -2.25 0 0 0 Z " fill="#B1BCF7" transform="translate(318,140)"/>
<path d="M0 0 C1.98 0 3.96 0 6 0 C2.79663178 2.83374881 0.21912747 3.5205537 -4 4 C-4 3.34 -4 2.68 -4 2 C-2.68 2 -1.36 2 0 2 C0 1.34 0 0.68 0 0 Z " fill="#3053EE" transform="translate(172,92)"/>
</svg>
